<svg xmlns="http://www.w3.org/2000/svg" version="1.1" xmlns:xlink="http://www.w3.org/1999/xlink" xmlns:svgjs="http://svgjs.dev/svgjs" width="1000" height="1000" viewBox="0 0 1000 1000"><g transform="matrix(1,0,0,1,0,-0.000034301570337902376)"><svg viewBox="0 0 280 280" data-background-color="#ffffff" preserveAspectRatio="xMidYMid meet" height="1000" width="1000" xmlns="http://www.w3.org/2000/svg" xmlns:xlink="http://www.w3.org/1999/xlink"><g id="tight-bounds" transform="matrix(1,0,0,1,0,0.0000096144383974206)"><svg viewBox="0 0 280 280" height="280" width="280"><g><svg viewBox="0 0 280 280" height="280" width="280"><g><svg viewBox="0 0 280 280" height="280" width="280"><g id="textblocktransform"><svg viewBox="0 0 280 280" height="280" width="280" id="textblock"><g><svg viewBox="0 0 280 280" height="280" width="280"><g transform="matrix(1,0,0,1,90.50252531694167,96.39238195932185)"><svg viewBox="0 0 98.99494936611666 87.21523608135628" height="87.21523608135628" width="98.99494936611666"><g><svg xmlns="http://www.w3.org/2000/svg" xmlns:xlink="http://www.w3.org/1999/xlink" version="1.1" x="0" y="0" viewBox="6.300000190734863 11.5 87.39999389648438 77" style="enable-background:new 0 0 100 100;" xml:space="preserve" height="87.21523608135628" width="98.99494936611666" class="icon-o-0" data-fill-palette-color="accent" id="o-0"><path d="M72.3 12.3L72.3 12.3 72.3 12.3l-0.4-0.8H28.2L6.3 50l21.8 38.5h43.7L93.7 50 72.3 12.3zM33.3 25.3L9.9 47.7l18.6-32.8L33.3 25.3zM70.7 14.8l6.4 35.7L36.9 25.8 70.7 14.8zM35.5 27.3l41 25.2-41 23.3V27.3zM77 54.5l-7.2 30.8-32.6-8.1L77 54.5zM33.5 75L9.9 50.5l23.6-22.7V75zM33.2 77.6l-4.6 7.7L11.5 55.1 33.2 77.6zM35 78.6l31.4 7.9H30.2L35 78.6zM79.3 53.3l11.6-2.5L72.1 84 79.3 53.3zM90.7 48.9l-11.4 2.5-5.9-33.1L90.7 48.9zM35 24.3l-5-10.8h38.2L35 24.3z" fill="#1ebbd7" data-fill-palette-color="accent"></path></svg></g></svg></g><path d="M40.703 183.126v0c0.406 1.163 0.725 2.168 0.956 3.013 0.24 0.849 0.422 1.642 0.546 2.378 0.132 0.74 0.226 1.521 0.281 2.343v0l-3.046 0.621c-0.196-0.802-0.391-1.544-0.588-2.226-0.198-0.689-0.415-1.42-0.649-2.194-0.241-0.772-0.546-1.686-0.916-2.743v0c-0.578-1.658-1.36-2.851-2.344-3.582-0.978-0.732-2.294-1.034-3.947-0.906-1.653 0.128-3.797 0.651-6.43 1.569v0c-2.64 0.921-4.646 1.846-6.02 2.775-1.374 0.928-2.216 1.984-2.527 3.165-0.317 1.184-0.186 2.605 0.393 4.262v0c0.587 1.683 1.116 3.087 1.586 4.215 0.464 1.129 0.963 2.207 1.497 3.234v0l-2.771 1.409c-0.735-1.021-1.385-2.109-1.95-3.266-0.563-1.151-1.155-2.617-1.778-4.4v0c-0.904-2.59-1.181-4.822-0.832-6.698 0.349-1.876 1.408-3.515 3.178-4.919 1.778-1.399 4.375-2.695 7.79-3.886v0c3.409-1.189 6.245-1.789 8.507-1.8 2.259-0.002 4.108 0.623 5.548 1.874 1.44 1.252 2.612 3.172 3.516 5.762zM51.982 204.128v0c1.133 1.753 1.888 3.378 2.265 4.877 0.383 1.496 0.339 2.916-0.132 4.263-0.462 1.348-1.378 2.701-2.748 4.059-1.379 1.357-3.24 2.792-5.582 4.306v0c-2.326 1.503-4.393 2.607-6.202 3.311-1.818 0.702-3.436 0.987-4.855 0.854-1.421-0.123-2.734-0.666-3.94-1.629-1.212-0.96-2.384-2.316-3.517-4.069v0c-1.129-1.747-1.883-3.37-2.26-4.87-0.383-1.496-0.344-2.925 0.116-4.287 0.458-1.353 1.377-2.72 2.756-4.101 1.374-1.377 3.224-2.817 5.549-4.32v0c2.342-1.514 4.421-2.613 6.235-3.296 1.809-0.68 3.424-0.951 4.846-0.813 1.431 0.14 2.75 0.691 3.957 1.654 1.212 0.96 2.383 2.313 3.512 4.061zM48.977 206.07v0c-0.964-1.491-2.016-2.491-3.157-3-1.143-0.5-2.503-0.492-4.08 0.022-1.571 0.511-3.553 1.539-5.945 3.085v0c-2.37 1.532-4.119 2.915-5.246 4.149-1.127 1.234-1.698 2.474-1.712 3.721-0.005 1.249 0.475 2.62 1.438 4.111v0c0.967 1.497 2.016 2.491 3.147 2.983 1.136 0.488 2.501 0.477 4.096-0.033 1.595-0.51 3.577-1.531 5.948-3.063v0c2.392-1.546 4.14-2.936 5.243-4.171 1.109-1.237 1.674-2.474 1.696-3.71 0.016-1.233-0.46-2.597-1.428-4.094zM75.88 230.528l2.952 2.678-17.973 19.813c-0.717 0.79-1.45 0.844-2.201 0.164v0l-2.613-2.371c-0.348-0.316-0.545-0.642-0.589-0.977-0.044-0.336 0-0.72 0.134-1.153v0l5.983-20.425c0.188-0.572 0.393-1.227 0.615-1.965 0.231-0.738 0.488-1.386 0.771-1.944v0l-0.457-0.414c-0.388 0.507-0.788 1.007-1.2 1.501-0.407 0.498-0.831 0.99-1.272 1.476v0l-13.693 15.095-2.988-2.71 17.973-19.814c0.717-0.79 1.46-0.836 2.23-0.137v0l2.532 2.297c0.343 0.312 0.542 0.64 0.597 0.984 0.059 0.349 0.022 0.74-0.112 1.173v0l-5.9 19.831c-0.166 0.627-0.371 1.331-0.615 2.112-0.239 0.776-0.478 1.538-0.719 2.286v0l0.494 0.447c0.454-0.59 0.914-1.161 1.379-1.713 0.47-0.558 0.943-1.099 1.42-1.624v0zM90.408 239.159v0c1.192 0.622 2.393 1.257 3.603 1.903 1.204 0.643 2.395 1.288 3.575 1.934 1.18 0.646 2.278 1.298 3.295 1.955v0l-1.629 2.67-9.364-4.889c-0.822-0.429-1.516-0.56-2.082-0.392-0.566 0.168-1.059 0.654-1.479 1.459v0l-10.362 19.846-3.647-1.904 10.725-20.542c0.76-1.456 1.803-2.358 3.128-2.706 1.322-0.341 2.734-0.12 4.237 0.666zM78.905 250.629l1.485-2.845 13.372 6.981-1.486 2.845zM107.759 246.669l3.912 1.274-8.781 26.957-3.912-1.274zM131.021 250.269v0c1.007 0.119 1.964 0.263 2.871 0.43 0.902 0.16 1.776 0.351 2.624 0.572 0.84 0.226 1.654 0.51 2.441 0.849v0l-0.763 2.972c-0.866-0.183-1.724-0.344-2.574-0.485-0.85-0.147-1.682-0.276-2.496-0.386-0.814-0.11-1.603-0.21-2.366-0.301v0c-1.441-0.171-2.681-0.178-3.72-0.02-1.039 0.15-1.897 0.586-2.576 1.305-0.679 0.72-1.24 1.798-1.685 3.233-0.45 1.434-0.816 3.336-1.096 5.704v0c-0.319 2.691-0.388 4.847-0.207 6.47 0.181 1.623 0.657 2.84 1.429 3.651 0.772 0.805 1.881 1.294 3.328 1.466v0c1.007 0.119 1.934 0.092 2.782-0.081 0.849-0.18 1.658-0.451 2.428-0.813 0.777-0.362 1.518-0.734 2.224-1.117v0l0.253 2.422c-0.532 0.491-1.263 1.004-2.194 1.541-0.931 0.537-1.995 0.958-3.192 1.262-1.19 0.299-2.508 0.363-3.955 0.192v0c-2.092-0.248-3.735-0.966-4.928-2.155-1.2-1.19-1.977-2.903-2.333-5.14-0.355-2.237-0.331-5.056 0.072-8.457v0c0.438-3.697 1.165-6.563 2.18-8.598 1.008-2.029 2.435-3.374 4.281-4.035 1.847-0.668 4.238-0.829 7.172-0.481zM134.366 263.244l3.996 0.474-1.93 16.282-2.97-0.352-0.168-4.243-0.258-0.941zM164.488 248.59l3.947-0.541 3.637 26.502c0.145 1.057-0.285 1.654-1.289 1.792v0l-3.495 0.479c-0.466 0.064-0.842 0.005-1.127-0.176-0.286-0.181-0.552-0.463-0.798-0.844v0l-11.808-17.708c-0.318-0.511-0.688-1.089-1.111-1.733-0.417-0.652-0.749-1.265-0.994-1.839v0l-0.611 0.083c0.139 0.623 0.265 1.251 0.379 1.884 0.12 0.632 0.225 1.273 0.314 1.923v0l2.771 20.192-3.997 0.548-3.637-26.502c-0.145-1.057 0.298-1.656 1.328-1.797v0l3.387-0.465c0.459-0.063 0.839-0.005 1.137 0.175 0.305 0.179 0.581 0.459 0.828 0.839v0l11.405 17.262c0.374 0.53 0.782 1.14 1.224 1.828 0.441 0.682 0.871 1.355 1.29 2.02v0l0.66-0.091c-0.16-0.727-0.302-1.446-0.427-2.158-0.125-0.718-0.236-1.429-0.332-2.131v0zM176.34 244.965l3.881-1.367 9.417 26.741-3.88 1.366zM193.324 236.427l3.52-2.111 14.585 24.311-3.519 2.111zM185.604 241.059l18.994-11.395 1.82 3.033-18.994 11.396zM209.635 225.302l3.141-2.658 18.312 21.643-3.14 2.657zM224.373 207.938v0c1.286-1.643 2.576-2.888 3.87-3.735 1.288-0.851 2.645-1.274 4.071-1.268 1.425-0.004 3.003 0.419 4.735 1.27 1.733 0.86 3.698 2.149 5.894 3.868v0c2.181 1.707 3.899 3.3 5.156 4.779 1.258 1.489 2.056 2.925 2.394 4.309 0.348 1.383 0.264 2.802-0.253 4.257-0.511 1.459-1.41 3.01-2.695 4.654v0c-1.282 1.638-2.57 2.881-3.864 3.727-1.288 0.851-2.652 1.281-4.089 1.292-1.429 0.009-3.021-0.413-4.777-1.265-1.75-0.848-3.716-2.126-5.897-3.833v0c-2.196-1.719-3.914-3.324-5.153-4.815-1.234-1.487-2.018-2.925-2.352-4.314-0.336-1.398-0.245-2.825 0.271-4.28 0.511-1.459 1.408-3.008 2.689-4.646zM227.191 210.143v0c-1.094 1.398-1.695 2.72-1.803 3.964-0.098 1.244 0.353 2.527 1.354 3.849 0.996 1.318 2.616 2.855 4.859 4.61v0c2.222 1.739 4.101 2.94 5.635 3.602 1.534 0.662 2.893 0.796 4.077 0.402 1.182-0.404 2.321-1.305 3.415-2.703v0c1.098-1.403 1.695-2.72 1.79-3.949 0.09-1.233-0.366-2.52-1.37-3.86-1.003-1.341-2.616-2.88-4.839-4.62v0c-2.243-1.756-4.128-2.953-5.655-3.593-1.532-0.644-2.886-0.774-4.061-0.39-1.17 0.388-2.304 1.284-3.402 2.688zM241.523 176.721l1.567-3.664 24.596 10.518c0.981 0.419 1.272 1.095 0.873 2.027v0l-1.387 3.244c-0.185 0.432-0.429 0.725-0.731 0.876-0.303 0.152-0.68 0.235-1.134 0.25v0l-21.26 1.014c-0.602 0.009-1.288 0.029-2.057 0.06-0.773 0.022-1.47-0.009-2.089-0.093v0l-0.243 0.566c0.606 0.201 1.209 0.416 1.811 0.645 0.604 0.222 1.207 0.462 1.81 0.72v0l18.74 8.013-1.587 3.71-24.596-10.518c-0.981-0.419-1.267-1.107-0.857-2.064v0l1.344-3.143c0.182-0.426 0.427-0.721 0.735-0.885 0.31-0.17 0.692-0.262 1.145-0.278v0l20.67-0.898c0.647-0.047 1.38-0.084 2.197-0.109 0.812-0.028 1.61-0.05 2.396-0.067v0l0.262-0.612c-0.706-0.237-1.396-0.485-2.07-0.745-0.68-0.262-1.347-0.533-1.999-0.811v0z" fill="#1ebbd7" data-fill-palette-color="primary"></path><path d="M4.913 92.55V92.55C5.311 91.405 5.676 90.434 6.009 89.638 6.348 88.844 6.692 88.125 7.041 87.482 7.393 86.833 7.799 86.178 8.26 85.518V85.518L10.984 86.884C10.643 87.622 10.34 88.312 10.075 88.956 9.807 89.607 9.527 90.302 9.235 91.042 8.951 91.778 8.628 92.669 8.265 93.714V93.714C7.702 95.335 7.576 96.728 7.886 97.895 8.192 99.053 9.021 100.088 10.374 101 11.722 101.903 13.692 102.804 16.283 103.704V103.704C18.873 104.603 20.978 105.117 22.596 105.244 24.222 105.367 25.514 105.069 26.472 104.349 27.439 103.626 28.203 102.454 28.766 100.833V100.833C29.34 99.181 29.789 97.777 30.114 96.62 30.442 95.472 30.717 94.337 30.939 93.214V93.214L33.923 93.83C33.868 95.059 33.704 96.289 33.431 97.519 33.164 98.752 32.726 100.245 32.118 101.997V101.997C31.237 104.531 30.092 106.416 28.681 107.652 27.27 108.887 25.455 109.501 23.234 109.494 21.017 109.496 18.232 108.914 14.878 107.75V107.75C11.523 106.585 8.977 105.315 7.238 103.94 5.491 102.569 4.447 100.961 4.106 99.117 3.764 97.274 4.033 95.084 4.913 92.55ZM19.972 63.486V63.486C21.081 61.765 22.228 60.432 23.413 59.485 24.598 58.539 25.889 58.003 27.286 57.879 28.677 57.75 30.257 58.024 32.028 58.7 33.796 59.382 35.832 60.466 38.138 61.951V61.951C40.421 63.422 42.244 64.825 43.606 66.16 44.965 67.5 45.873 68.83 46.331 70.15 46.795 71.473 46.84 72.87 46.468 74.34 46.096 75.811 45.356 77.406 44.247 79.127V79.127C43.142 80.842 41.997 82.173 40.811 83.12 39.626 84.066 38.332 84.607 36.928 84.743 35.53 84.883 33.937 84.616 32.147 83.944 30.358 83.272 28.322 82.2 26.038 80.729V80.729C23.733 79.244 21.91 77.829 20.57 76.484 19.229 75.14 18.334 73.802 17.883 72.472 17.426 71.137 17.384 69.735 17.756 68.265 18.129 66.794 18.867 65.201 19.972 63.486ZM22.921 65.386V65.386C21.977 66.851 21.513 68.195 21.529 69.419 21.535 70.644 22.088 71.859 23.187 73.064 24.284 74.26 26.008 75.615 28.358 77.129V77.129C30.686 78.629 32.627 79.635 34.18 80.147 35.743 80.657 37.083 80.662 38.202 80.161 39.322 79.67 40.355 78.692 41.298 77.227V77.227C42.246 75.757 42.708 74.416 42.685 73.203 42.672 71.989 42.113 70.77 41.01 69.547 39.909 68.333 38.194 66.976 35.866 65.476V65.476C33.516 63.962 31.567 62.958 30.017 62.464 28.459 61.972 27.124 61.971 26.012 62.46 24.899 62.941 23.868 63.916 22.921 65.386ZM50.657 30.555L53.545 27.926 71.22 47.339C71.925 48.113 71.91 48.834 71.175 49.503V49.503L68.611 51.838C68.273 52.146 67.939 52.306 67.61 52.319 67.272 52.331 66.898 52.25 66.489 52.076V52.076L47.093 44.323C46.555 44.087 45.937 43.826 45.237 43.54 44.538 43.245 43.929 42.935 43.41 42.61V42.61L42.962 43.018C43.416 43.438 43.864 43.872 44.308 44.32 44.76 44.767 45.203 45.229 45.635 45.704V45.704L59.103 60.495 56.178 63.158 38.503 43.745C37.798 42.971 37.823 42.241 38.578 41.554V41.554L41.054 39.299C41.392 38.992 41.73 38.827 42.069 38.805 42.417 38.784 42.795 38.86 43.204 39.034V39.034L62.03 46.648C62.63 46.864 63.297 47.129 64.033 47.445 64.769 47.752 65.493 48.055 66.206 48.356V48.356L66.684 47.921C66.154 47.418 65.641 46.913 65.144 46.407 64.643 45.896 64.158 45.383 63.689 44.869V44.869ZM72.826 16.413V16.413C73.988 15.804 75.167 15.192 76.364 14.579 77.561 13.966 78.749 13.365 79.929 12.775 81.108 12.186 82.248 11.663 83.347 11.206V11.206L84.589 14.022 75.412 18.838C74.603 19.263 74.107 19.751 73.925 20.303 73.746 20.846 73.863 21.51 74.276 22.297V22.297L84.491 41.76 80.918 43.634 70.348 23.494C69.6 22.068 69.456 20.726 69.917 19.466 70.378 18.207 71.348 17.189 72.826 16.413ZM75.642 32.106L74.178 29.317 87.28 22.441 88.744 25.23ZM95.917 6.546L99.752 5.293 108.392 31.742 104.557 32.994ZM126.077 0.31V0.31C127.064 0.193 128.008 0.108 128.909 0.054 129.809 0.001 130.688-0.013 131.545 0.012 132.401 0.031 133.245 0.114 134.077 0.262V0.262L134.023 3.271C133.158 3.293 132.306 3.334 131.466 3.394 130.618 3.448 129.792 3.515 128.988 3.597 128.184 3.679 127.41 3.764 126.667 3.853V3.853C125.253 4.02 124.065 4.298 123.103 4.685 122.148 5.072 121.43 5.684 120.949 6.522 120.469 7.366 120.179 8.524 120.08 9.997 119.988 11.469 120.08 13.366 120.355 15.688V15.688C120.668 18.333 121.094 20.407 121.633 21.911 122.179 23.421 122.914 24.471 123.837 25.062 124.762 25.659 125.932 25.874 127.346 25.707V25.707C128.333 25.59 129.212 25.349 129.982 24.984 130.747 24.626 131.459 24.185 132.117 23.66 132.775 23.135 133.396 22.608 133.981 22.078V22.078L134.779 24.335C134.388 24.922 133.809 25.581 133.042 26.312 132.274 27.037 131.356 27.68 130.288 28.24 129.214 28.801 127.97 29.165 126.555 29.333V29.333C124.503 29.576 122.768 29.268 121.352 28.408 119.935 27.542 118.802 26.086 117.952 24.038 117.095 21.985 116.469 19.291 116.074 15.955V15.955C115.643 12.324 115.679 9.421 116.182 7.247 116.686 5.079 117.739 3.467 119.341 2.409 120.95 1.351 123.196 0.652 126.077 0.31ZM132.247 11.927L136.175 11.461 138.068 27.438 135.147 27.784 134.022 23.775 133.553 22.94ZM168.726 3.082L172.595 3.611 169.035 29.623C168.893 30.66 168.33 31.111 167.346 30.976V30.976L163.91 30.506C163.457 30.444 163.12 30.291 162.899 30.046 162.673 29.795 162.495 29.456 162.366 29.031V29.031L155.876 9.176C155.713 8.612 155.517 7.97 155.288 7.25 155.066 6.524 154.913 5.858 154.829 5.252V5.252L154.228 5.169C154.197 5.787 154.152 6.409 154.093 7.037 154.04 7.671 153.969 8.307 153.882 8.943V8.943L151.17 28.762 147.251 28.226 150.811 2.214C150.953 1.177 151.53 0.728 152.541 0.866V0.866L155.858 1.321C156.311 1.382 156.655 1.536 156.888 1.782 157.128 2.036 157.312 2.375 157.441 2.801V2.801L163.672 22.128C163.891 22.727 164.115 23.409 164.345 24.176 164.581 24.938 164.813 25.688 165.039 26.428V26.428L165.679 26.515C165.726 25.786 165.784 25.069 165.854 24.363 165.924 23.65 166.007 22.95 166.101 22.26V22.26ZM187.967 8.496L191.772 9.838 182.52 36.078 178.715 34.737ZM211.693 20.205L215.15 22.284 200.81 46.128 197.353 44.049ZM204.122 15.652L222.755 26.858 220.967 29.83 202.335 18.624ZM232.878 34.897L235.951 37.51 217.926 58.706 214.853 56.093ZM253.596 57.037V57.037C254.852 58.653 255.731 60.177 256.231 61.608 256.732 63.04 256.81 64.436 256.465 65.794 256.126 67.149 255.344 68.55 254.119 69.998 252.891 71.439 251.194 73.002 249.029 74.686V74.686C246.884 76.353 244.957 77.608 243.246 78.452 241.532 79.29 239.976 79.706 238.579 79.702 237.177 79.701 235.844 79.281 234.58 78.443 233.316 77.605 232.055 76.378 230.799 74.762V74.762C229.546 73.151 228.67 71.63 228.169 70.198 227.668 68.767 227.586 67.366 227.923 65.997 228.254 64.631 229.034 63.216 230.26 61.75 231.487 60.284 233.173 58.718 235.317 57.051V57.051C237.482 55.367 239.421 54.116 241.133 53.296 242.846 52.476 244.404 52.074 245.809 52.09 247.219 52.101 248.557 52.526 249.821 53.364 251.085 54.202 252.343 55.426 253.596 57.037ZM250.826 59.19V59.19C249.757 57.815 248.642 56.931 247.483 56.541 246.324 56.141 244.995 56.26 243.494 56.898 242.002 57.538 240.153 58.716 237.946 60.432V60.432C235.76 62.131 234.168 63.629 233.17 64.925 232.171 66.231 231.722 67.494 231.825 68.716 231.917 69.936 232.498 71.234 233.568 72.609V72.609C234.641 73.99 235.754 74.87 236.906 75.25 238.056 75.64 239.391 75.517 240.91 74.881 242.42 74.243 244.269 73.075 246.455 71.375V71.375C248.662 69.659 250.255 68.152 251.234 66.853 252.214 65.546 252.658 64.286 252.564 63.076 252.479 61.866 251.9 60.571 250.826 59.19ZM274.512 96.887L276.038 100.482 251.87 110.739C250.907 111.148 250.231 110.895 249.843 109.98V109.98L248.488 106.788C248.309 106.367 248.268 105.999 248.365 105.685 248.466 105.362 248.665 105.036 248.965 104.707V104.707L262.699 88.968C263.099 88.539 263.55 88.042 264.052 87.476 264.562 86.915 265.056 86.442 265.534 86.059V86.059L265.297 85.501C264.75 85.791 264.193 86.071 263.624 86.341 263.051 86.62 262.469 86.885 261.878 87.136V87.136L243.464 94.951 241.919 91.311 266.086 81.053C267.05 80.644 267.731 80.91 268.129 81.849V81.849L269.438 84.931C269.616 85.352 269.66 85.726 269.568 86.053 269.473 86.388 269.276 86.72 268.976 87.049V87.049L255.563 102.295C255.161 102.79 254.689 103.332 254.148 103.921 253.615 104.515 253.089 105.098 252.569 105.671V105.671L252.822 106.265C253.472 105.932 254.118 105.615 254.76 105.313 255.408 105.009 256.053 104.721 256.693 104.45V104.45Z" fill="#1ebbd7" data-fill-palette-color="primary"></path><path d="M3.498 143.849c0-5.981 4.849-10.83 10.83-10.83 5.981 0 10.83 4.849 10.829 10.83 0 5.981-4.849 10.83-10.829 10.83-5.981 0-10.83-4.849-10.83-10.83zM253.917 143.849c0-5.981 4.849-10.83 10.83-10.83 5.981 0 10.83 4.849 10.83 10.83 0 5.981-4.849 10.83-10.83 10.83-5.981 0-10.83-4.849-10.83-10.83z" fill="#1ebbd7" data-fill-palette-color="primary"></path></svg></g></svg></g></svg></g></svg></g><defs></defs></svg><rect width="280" height="280" fill="none" stroke="none" visibility="hidden"></rect></g></svg></g></svg>